<mxfile host="Electron" modified="2024-01-16T18:51:23.761Z" agent="Mozilla/5.0 (Windows NT 10.0; Win64; x64) AppleWebKit/537.36 (KHTML, like Gecko) draw.io/22.0.2 Chrome/114.0.5735.289 Electron/25.8.4 Safari/537.36" etag="ShRWBgTUTOi0U6yGPRPb" version="22.0.2" type="device">
  <diagram name="PÃ¡gina-1" id="EEHsskG481pSahMsgSiT">
    <mxGraphModel dx="1276" dy="607" grid="1" gridSize="10" guides="1" tooltips="1" connect="1" arrows="1" fold="1" page="1" pageScale="1" pageWidth="827" pageHeight="1169" math="0" shadow="0">
      <root>
        <mxCell id="0" />
        <mxCell id="1" parent="0" />
        <mxCell id="7KGEHhLo9_i5JwI9U9lC-1" value="Estan&lt;br&gt;" style="shape=rhombus;perimeter=rhombusPerimeter;whiteSpace=wrap;html=1;align=center;" vertex="1" parent="1">
          <mxGeometry x="707" y="190" width="120" height="60" as="geometry" />
        </mxCell>
        <mxCell id="7KGEHhLo9_i5JwI9U9lC-2" value="POLITICOS" style="whiteSpace=wrap;html=1;align=center;" vertex="1" parent="1">
          <mxGeometry x="710" y="280" width="100" height="40" as="geometry" />
        </mxCell>
        <mxCell id="7KGEHhLo9_i5JwI9U9lC-3" value="POLITICOS" style="whiteSpace=wrap;html=1;align=center;" vertex="1" parent="1">
          <mxGeometry x="700" y="350" width="100" height="40" as="geometry" />
        </mxCell>
        <mxCell id="7KGEHhLo9_i5JwI9U9lC-4" value="" style="verticalLabelPosition=bottom;verticalAlign=top;html=1;shape=mxgraph.basic.acute_triangle;dx=0.5;direction=west;" vertex="1" parent="1">
          <mxGeometry x="310" y="240" width="100" height="80" as="geometry" />
        </mxCell>
        <mxCell id="7KGEHhLo9_i5JwI9U9lC-5" value="" style="verticalLabelPosition=bottom;verticalAlign=top;html=1;shape=mxgraph.basic.arc;startAngle=0.4927706605486116;endAngle=0.006362805673995916;direction=north;" vertex="1" parent="1">
          <mxGeometry x="310" y="240" width="100" height="100" as="geometry" />
        </mxCell>
        <mxCell id="7KGEHhLo9_i5JwI9U9lC-6" value="(0,1)" style="text;strokeColor=none;fillColor=none;spacingLeft=4;spacingRight=4;overflow=hidden;rotatable=0;points=[[0,0.5],[1,0.5]];portConstraint=eastwest;fontSize=12;whiteSpace=wrap;html=1;" vertex="1" parent="1">
          <mxGeometry x="640" y="490" width="40" height="30" as="geometry" />
        </mxCell>
        <mxCell id="7KGEHhLo9_i5JwI9U9lC-7" value="Se presentan&lt;br&gt;al" style="text;html=1;strokeColor=none;fillColor=none;align=center;verticalAlign=middle;whiteSpace=wrap;rounded=0;" vertex="1" parent="1">
          <mxGeometry x="330" y="250" width="60" height="30" as="geometry" />
        </mxCell>
        <mxCell id="7KGEHhLo9_i5JwI9U9lC-8" value="" style="endArrow=none;html=1;rounded=0;entryX=0.5;entryY=1;entryDx=0;entryDy=0;exitX=0.5;exitY=1;exitDx=0;exitDy=0;exitPerimeter=0;" edge="1" parent="1" source="7KGEHhLo9_i5JwI9U9lC-4" target="7KGEHhLo9_i5JwI9U9lC-9">
          <mxGeometry width="50" height="50" relative="1" as="geometry">
            <mxPoint x="360" y="240" as="sourcePoint" />
            <mxPoint x="360" y="130" as="targetPoint" />
          </mxGeometry>
        </mxCell>
        <mxCell id="7KGEHhLo9_i5JwI9U9lC-9" value="" style="ellipse;whiteSpace=wrap;html=1;aspect=fixed;" vertex="1" parent="1">
          <mxGeometry x="346.25" y="210" width="27.5" height="27.5" as="geometry" />
        </mxCell>
        <mxCell id="7KGEHhLo9_i5JwI9U9lC-10" value="" style="endArrow=none;html=1;rounded=0;" edge="1" parent="1">
          <mxGeometry width="50" height="50" relative="1" as="geometry">
            <mxPoint x="250" y="580" as="sourcePoint" />
            <mxPoint x="300" y="530" as="targetPoint" />
          </mxGeometry>
        </mxCell>
        <mxCell id="7KGEHhLo9_i5JwI9U9lC-11" value="" style="endArrow=none;html=1;rounded=0;" edge="1" parent="1">
          <mxGeometry width="50" height="50" relative="1" as="geometry">
            <mxPoint x="240" y="480" as="sourcePoint" />
            <mxPoint x="290" y="430" as="targetPoint" />
          </mxGeometry>
        </mxCell>
        <mxCell id="7KGEHhLo9_i5JwI9U9lC-12" value="" style="endArrow=none;html=1;rounded=0;" edge="1" parent="1">
          <mxGeometry width="50" height="50" relative="1" as="geometry">
            <mxPoint x="400" y="590" as="sourcePoint" />
            <mxPoint x="450" y="540" as="targetPoint" />
          </mxGeometry>
        </mxCell>
        <mxCell id="7KGEHhLo9_i5JwI9U9lC-14" value="&lt;b&gt;&lt;font style=&quot;font-size: 14px;&quot;&gt;N:M&lt;/font&gt;&lt;/b&gt;" style="text;strokeColor=none;fillColor=none;spacingLeft=4;spacingRight=4;overflow=hidden;rotatable=0;points=[[0,0.5],[1,0.5]];portConstraint=eastwest;fontSize=12;whiteSpace=wrap;html=1;" vertex="1" parent="1">
          <mxGeometry x="630" y="410" width="40" height="30" as="geometry" />
        </mxCell>
        <mxCell id="7KGEHhLo9_i5JwI9U9lC-15" value="(N,N)" style="text;strokeColor=none;fillColor=none;spacingLeft=4;spacingRight=4;overflow=hidden;rotatable=0;points=[[0,0.5],[1,0.5]];portConstraint=eastwest;fontSize=12;whiteSpace=wrap;html=1;" vertex="1" parent="1">
          <mxGeometry x="200" y="120" width="40" height="30" as="geometry" />
        </mxCell>
        <mxCell id="7KGEHhLo9_i5JwI9U9lC-16" value="INCIDENCIA" style="shape=ext;margin=3;double=1;whiteSpace=wrap;html=1;align=center;" vertex="1" parent="1">
          <mxGeometry x="710" y="30" width="100" height="40" as="geometry" />
        </mxCell>
        <mxCell id="7KGEHhLo9_i5JwI9U9lC-17" value="Registra" style="shape=rhombus;double=1;perimeter=rhombusPerimeter;whiteSpace=wrap;html=1;align=center;" vertex="1" parent="1">
          <mxGeometry x="700" y="100" width="120" height="60" as="geometry" />
        </mxCell>
        <mxCell id="7KGEHhLo9_i5JwI9U9lC-18" value="(N,1)" style="text;strokeColor=none;fillColor=none;spacingLeft=4;spacingRight=4;overflow=hidden;rotatable=0;points=[[0,0.5],[1,0.5]];portConstraint=eastwest;fontSize=12;whiteSpace=wrap;html=1;" vertex="1" parent="1">
          <mxGeometry x="640" y="520" width="40" height="30" as="geometry" />
        </mxCell>
        <mxCell id="7KGEHhLo9_i5JwI9U9lC-19" value="(1,N)" style="text;strokeColor=none;fillColor=none;spacingLeft=4;spacingRight=4;overflow=hidden;rotatable=0;points=[[0,0.5],[1,0.5]];portConstraint=eastwest;fontSize=12;whiteSpace=wrap;html=1;" vertex="1" parent="1">
          <mxGeometry x="640" y="550" width="40" height="30" as="geometry" />
        </mxCell>
        <mxCell id="7KGEHhLo9_i5JwI9U9lC-20" value="(1,1)" style="text;strokeColor=none;fillColor=none;spacingLeft=4;spacingRight=4;overflow=hidden;rotatable=0;points=[[0,0.5],[1,0.5]];portConstraint=eastwest;fontSize=12;whiteSpace=wrap;html=1;" vertex="1" parent="1">
          <mxGeometry x="730" y="470" width="40" height="30" as="geometry" />
        </mxCell>
        <mxCell id="7KGEHhLo9_i5JwI9U9lC-21" value="&lt;u&gt;nombre&amp;nbsp;&lt;/u&gt;" style="ellipse;whiteSpace=wrap;html=1;align=center;" vertex="1" parent="1">
          <mxGeometry x="505" y="100" width="100" height="40" as="geometry" />
        </mxCell>
        <mxCell id="7KGEHhLo9_i5JwI9U9lC-22" value="" style="endArrow=none;html=1;rounded=0;entryX=0;entryY=0.5;entryDx=0;entryDy=0;exitX=0.75;exitY=0;exitDx=0;exitDy=0;" edge="1" parent="1" source="7KGEHhLo9_i5JwI9U9lC-25" target="7KGEHhLo9_i5JwI9U9lC-21">
          <mxGeometry width="50" height="50" relative="1" as="geometry">
            <mxPoint x="247.5" y="-225" as="sourcePoint" />
            <mxPoint x="322.5" y="-165" as="targetPoint" />
          </mxGeometry>
        </mxCell>
        <mxCell id="7KGEHhLo9_i5JwI9U9lC-23" value="" style="endArrow=none;html=1;rounded=0;exitX=1;exitY=0.5;exitDx=0;exitDy=0;entryX=0;entryY=0.5;entryDx=0;entryDy=0;" edge="1" parent="1" source="7KGEHhLo9_i5JwI9U9lC-27">
          <mxGeometry width="50" height="50" relative="1" as="geometry">
            <mxPoint x="-35" y="-175" as="sourcePoint" />
            <mxPoint x="515" y="175" as="targetPoint" />
          </mxGeometry>
        </mxCell>
        <mxCell id="7KGEHhLo9_i5JwI9U9lC-24" value="" style="endArrow=none;html=1;rounded=0;entryX=0;entryY=0.5;entryDx=0;entryDy=0;exitX=0.75;exitY=0;exitDx=0;exitDy=0;" edge="1" parent="1" target="7KGEHhLo9_i5JwI9U9lC-25">
          <mxGeometry width="50" height="50" relative="1" as="geometry">
            <mxPoint x="440" y="145" as="sourcePoint" />
            <mxPoint x="505" y="120" as="targetPoint" />
          </mxGeometry>
        </mxCell>
        <mxCell id="7KGEHhLo9_i5JwI9U9lC-25" value="" style="ellipse;whiteSpace=wrap;html=1;aspect=fixed;" vertex="1" parent="1">
          <mxGeometry x="500" y="112.5" width="15" height="15" as="geometry" />
        </mxCell>
        <mxCell id="7KGEHhLo9_i5JwI9U9lC-26" value="" style="endArrow=none;html=1;rounded=0;exitX=1;exitY=0.5;exitDx=0;exitDy=0;entryX=0;entryY=0.5;entryDx=0;entryDy=0;" edge="1" parent="1" target="7KGEHhLo9_i5JwI9U9lC-27">
          <mxGeometry width="50" height="50" relative="1" as="geometry">
            <mxPoint x="475" y="165" as="sourcePoint" />
            <mxPoint x="515" y="175" as="targetPoint" />
          </mxGeometry>
        </mxCell>
        <mxCell id="7KGEHhLo9_i5JwI9U9lC-27" value="" style="ellipse;whiteSpace=wrap;html=1;aspect=fixed;" vertex="1" parent="1">
          <mxGeometry x="505" y="165" width="15" height="15" as="geometry" />
        </mxCell>
        <mxCell id="7KGEHhLo9_i5JwI9U9lC-28" value="&lt;span style=&quot;font-size: 14px;&quot;&gt;&lt;b&gt;M:N:P&lt;/b&gt;&lt;/span&gt;" style="text;strokeColor=none;fillColor=none;spacingLeft=4;spacingRight=4;overflow=hidden;rotatable=0;points=[[0,0.5],[1,0.5]];portConstraint=eastwest;fontSize=12;whiteSpace=wrap;html=1;" vertex="1" parent="1">
          <mxGeometry x="610" y="370" width="50" height="30" as="geometry" />
        </mxCell>
        <mxCell id="7KGEHhLo9_i5JwI9U9lC-29" value="&lt;b&gt;&lt;font style=&quot;font-size: 14px;&quot;&gt;1:1&lt;/font&gt;&lt;/b&gt;" style="text;strokeColor=none;fillColor=none;spacingLeft=4;spacingRight=4;overflow=hidden;rotatable=0;points=[[0,0.5],[1,0.5]];portConstraint=eastwest;fontSize=12;whiteSpace=wrap;html=1;" vertex="1" parent="1">
          <mxGeometry x="600" y="250" width="40" height="30" as="geometry" />
        </mxCell>
      </root>
    </mxGraphModel>
  </diagram>
</mxfile>
